Patient4_TMGait_0pt4_03_right_32_EMG.mot
version=1
nRows=23
nColumns=33
inDegrees=no
endheader
time	1LAddLong	2LGlutMax	3LGlutMed	4LIliopsoas	5LSemiMemb	6LBicFemLong	7LRecFem	8LVastMed	9LVastLat	10LGasMed	11LTibAnt	12lTibPost	13LPeroneusLong	14LSol	15LExtDigLong	16LFlexDigLong	17RAddLong	18RGlutMax	19RGlutMed	20RIliopsoas	21RSemiMemb	22RBicFemLong	23RRecFem	24RVastMed	25RVastLat	26RGasMed	27RTibAnt	28RTibPost	29RPeroneusLong	30RSol	31RExtDigLong	32RFlexDigLong
42.015	-0.005646	-0.028687	0.007629	0.001678	0.009766	-0.098419	0.006409	-0.000458	0.10559	0.036926	-0.093079	-0.006256	-0.029449	0.13748	0.3067	0.001068	-0.028839	-1.1667	-1.6267	-0.006409	0.060425	-0.007782	0.29862	0.079346	-0.10773	-0.015259	0.043793	-0.018158	-0.14496	-0.05127	0.000916	-0.011597
42.016	-0.00412	0.021057	-0.008545	0.00351	0.008392	-0.10559	0.029602	0.005341	0.12619	0.042877	-0.12253	0.000305	-0.072937	0.16876	0.18249	0.014038	-0.049744	-1.0796	-0.19348	-0.042267	-0.008087	-0.006714	0.27481	0.16098	0.011292	-0.010681	0.00351	-0.007935	-0.1741	-0.057373	-0.001221	-0.012817
42.017	-0.006256	0.048065	-0.011597	0.011749	0.008087	-0.074158	0.045319	0.000153	0.13306	0.039368	-0.029907	-0.003967	-0.082397	0.19318	-0.085297	0.011597	-0.072327	-1.1851	0.32471	0.022125	0.047913	-0.063171	0.11047	0.26062	0.052795	-0.011902	-0.010376	-0.018463	-0.12787	-0.072327	-0.001068	-0.006104
42.018	0.003052	0.041351	-0.041046	0.038147	0.001984	-0.061035	0.097656	0.007629	0.12634	0.018616	0.12131	-0.003357	-0.089874	0.25543	-0.22858	0.009766	-0.066528	-1.329	0.22659	0.074158	0.05188	-0.13443	0.16159	0.36163	-0.002136	-0.012207	-0.018158	-0.019684	-0.041962	-0.059662	-0.003052	-0.007782
42.019	-0.003662	0.066528	-0.04776	0.014648	0.008545	-0.081177	0.17624	0.005188	0.14694	0.020447	0.24445	-0.004425	-0.09964	0.29388	0.12283	0.013123	-0.019073	-1.3295	0.83984	0.010376	-0.017395	-0.17593	0.51407	0.30304	-0.075531	-0.021667	0.020142	-0.016022	-0.1358	-0.069885	-0.003662	-0.008087
42.02	0.000305	0.06546	-0.024261	-0.028229	0.009155	-0.063782	0.20477	0.006104	0.1326	0.02533	0.29083	-0.00473	-0.12497	0.28854	-0.050354	-0.002289	-0.011597	-1.3708	0.52277	-0.14862	-0.001526	-0.21133	0.616	0.19791	-0.10223	-0.027313	0.066376	-0.018158	-0.11276	-0.064545	-0.006561	-0.007935
42.021	0.002747	0.091248	-0.033722	-0.041199	0.005188	-0.063782	0.21896	0.005493	0.13138	-0.026245	-0.15793	-0.004883	0.016785	0.28778	-0.26932	0.011139	0.003815	-1.5419	-0.061798	-0.16205	0.00824	-0.20996	0.4599	0.33402	-0.059357	-0.031891	0.078125	-0.014343	-0.10574	-0.065308	-0.00473	-0.008698
42.022	-0.005188	0.08194	-0.027924	-0.027161	0.009155	-0.072632	0.19226	0.001678	0.13657	-0.029144	-0.29816	-0.001221	0.056305	0.25131	-0.25207	-0.00061	-0.002136	-1.5643	-0.71869	-0.085754	0.015564	-0.25497	0.46997	0.26062	-0.03006	-0.03006	0.09079	-0.019379	-0.088348	-0.11658	-0.00351	-0.01236
42.023	-0.002747	0.09201	-0.041656	0.006256	-0.000458	-0.046844	0.1828	0.00412	0.14862	-0.012054	-0.18509	-0.00473	0.029297	0.21561	-0.1622	0.012817	0.00473	-1.6917	-1.3522	-0.006561	0.027771	-0.24582	0.52445	0.1471	0.057678	-0.032501	0.13336	-0.01358	-0.1326	-0.13428	-0.007629	-0.014191
42.024	-0.004883	0.10696	-0.054779	0.039368	0.005188	-0.033722	0.14847	-0.002136	0.14893	-0.045319	0.07309	-0.001526	0.035706	0.10544	-0.34103	0.02243	0.014191	-1.8265	-1.8385	-0.013428	0.018311	-0.086823	0.54077	0.023499	0.12863	-0.034943	0.12787	-0.014191	-0.12848	-0.21668	-0.004578	-0.010986
42.025	-0.007019	0.08728	-0.092316	0.065613	0.001373	-0.057068	0.14526	0.003815	0.14252	-0.036163	0.16037	0.001221	0.043335	0.13062	0.15533	0.016785	0.015869	-1.8709	-1.3596	-0.07843	0.028992	-0.016327	0.35309	-0.077972	0.071411	-0.028229	0.11139	-0.015106	-0.12421	-0.19089	0.003662	-0.010834
42.026	-0.011749	0.065765	-0.12802	0.045319	0.007629	-0.041351	0.12711	0.005035	0.16647	0.022583	0.20783	-0.001678	-0.091553	0.044861	-0.13473	0.002899	-0.009613	-1.7982	-0.79514	-0.15518	-0.050964	-0.021973	0.12436	0.003357	0.012207	-0.032196	0.12085	-0.011292	-0.075378	-0.082855	0.004425	-0.014496
42.027	-0.010834	0.040283	-0.19165	-0.014343	0.009918	-0.040436	0.13031	-0.003967	0.18875	0.026398	0.10696	-0.001068	-0.10803	0.040588	-0.37659	0.00946	-0.019226	-1.9206	-0.71167	-0.27069	-0.17853	-0.066681	-0.16388	-0.2623	-0.061188	-0.02594	0.11459	-0.007935	-0.006256	-0.16083	0.002136	-0.019531
42.028	0.002594	0.033112	-0.2388	-0.03479	0.003967	-0.039978	0.14145	-0.002899	0.19211	0.014496	-0.028229	-0.003967	-0.080261	0.10696	-0.25955	0.004272	-0.021973	-1.9312	-0.76553	-0.24704	-0.35812	-0.079193	-0.11917	-0.2504	0.000305	-0.023804	0.090942	-0.007935	0.0177	0.15366	-0.005188	-0.00061
42.029	-0.016174	0.015564	-0.20477	-0.030365	0.001984	-0.050354	0.15259	-0.000458	0.19669	0.00061	-0.15976	0.003357	-0.09903	0.067749	-0.05249	-0.001678	-0.05188	-1.8369	-0.93567	-0.014801	0.17471	-0.15457	0.069122	-0.022278	0.023956	-0.012817	0.045624	-0.006409	0.14038	0.34973	-0.007935	-0.002289
42.03	-0.001984	-0.014191	-0.18372	-0.022125	0.003967	-0.059509	0.093842	0.006561	0.19547	-0.009308	-0.004578	0.002441	-0.079956	0.007935	0.072632	0.007172	-0.023956	-1.6809	-0.99762	0.23972	0.38895	-0.12436	0.2829	-0.1796	-0.031586	-0.016785	0.05661	-0.012054	0.084076	0.27283	-0.001526	-0.007172
42.031	-0.002441	-0.016174	-0.17166	-0.002899	0.005035	-0.038757	0.096436	-0.001678	0.18753	-0.02655	0.068207	0.001221	0.032349	0.11643	0.10407	0.003815	-0.016327	-1.5393	-0.77103	0.46417	-0.015717	-0.069427	0.30594	-0.22842	-0.056305	-0.019226	0.071106	-0.009918	0.022583	0.06546	-0.002289	-0.000458
42.032	-0.013885	-0.050507	-0.12589	0.002594	-0.002136	-0.048676	0.11414	-0.002747	0.20676	-0.049286	0.37155	0.005798	0.080109	0.17319	0.42252	0.008545	-0.009155	-1.3589	-0.89081	0.56793	-0.13153	-0.021973	0.24124	-0.16281	0.021667	-0.025024	0.067596	-0.00946	-0.009308	0.03067	0.007935	-0.003967
42.033	-0.002899	-0.069122	-0.0737	0.014954	-0.00473	-0.035706	0.09613	0.00061	0.17716	-0.025177	0.26154	-0.006866	0.050201	0.21042	0.24246	0.007019	0.014191	-1.257	-0.67673	0.3006	-0.011139	0.011139	0.22201	-0.14221	-0.017853	-0.021057	0.061951	-0.00412	-0.068359	0.023041	-0.001678	-0.00412
42.034	-0.011139	-0.054626	-0.033722	0.043182	-0.001221	-0.048523	0.075226	-0.005035	0.18936	-0.016327	-0.22751	-0.001831	-0.006409	0.097809	0.32379	0.015259	0.011902	-1.1366	0.078583	0.057983	0.076447	0.075989	0.14465	-0.095978	-0.069275	-0.019073	0.021667	-0.005188	-0.012054	0.022583	-0.007782	-0.002594
42.035	-0.003967	-0.079193	-0.011444	0.039215	-0.001373	-0.038605	0.028839	-0.00351	0.19562	-0.014954	-0.38559	0.000763	-0.032806	0.075836	-0.26504	-0.001221	-0.007019	-1.0252	1.0664	-0.034027	0.005493	0.18478	0.00412	-0.06134	0.068207	-0.016479	0.098572	-0.007019	-0.011749	-0.007629	-0.002747	-0.003204
42.036	-0.005341	-0.082245	-0.001373	0.003662	0.002899	-0.053864	-0.082092	0.002136	0.19699	-0.018768	-0.28259	-0.000305	-0.012512	0.029602	-0.21088	-0.014038	-0.005646	-1.0442	0.7164	-0.047913	0.084381	0.1236	-0.026398	-0.029144	0.19073	-0.023346	0.21713	-0.005951	-0.07019	-0.0354	-0.00061	-0.006714
42.037	-0.007019	-0.098267	-0.001678	-0.029144	0.001984	-0.041199	-0.099792	-0.009613	0.22308	-0.028687	-0.16235	-0.004425	-0.010376	0.088501	-0.21683	-0.009613	0.004578	-0.93842	-0.10757	-0.025482	0.11749	0.03418	0.15076	-0.016785	0.28839	-0.009766	0.22049	-0.006866	-0.15961	-0.045929	-0.00412	-0.008392
